<svg xmlns="http://www.w3.org/2000/svg" xmlns:xlink="http://www.w3.org/1999/xlink" viewBox="0 0 200 200"><defs><style>.cls-1{fill:none;}.cls-2{fill:#4ece52;}.cls-3{fill:#c280ff;}.cls-4{fill:#005ae3;}.cls-5{fill:url(#무제_그라디언트_3);}.cls-6{fill:url(#무제_그라디언트_2);}</style><radialGradient id="무제_그라디언트_3" cx="62.96" cy="134.57" fx="79.33103030119346" fy="118.1614273851638" r="23.18" gradientUnits="userSpaceOnUse"><stop offset="0.16"/><stop offset="0.86" stop-opacity="0"/></radialGradient><radialGradient id="무제_그라디언트_2" cx="92.91" cy="106.6" fx="119.87303519708412" fy="78.65661973068589" r="38.83" gradientUnits="userSpaceOnUse"><stop offset="0.37"/><stop offset="0.88" stop-opacity="0"/></radialGradient></defs><g id="레이어_2" data-name="레이어 2"><g id="shadow"><rect class="cls-1" width="200" height="200"/><circle class="cls-2" cx="60.07" cy="139.93" r="20"/><circle class="cls-3" cx="83.05" cy="116.95" r="35"/><circle class="cls-4" cx="115.93" cy="84.07" r="50"/><path class="cls-5" d="M48.67,123.52a18.86,18.86,0,0,0-2.74,2.27,20,20,0,1,0,28.28,28.28,18.86,18.86,0,0,0,2.27-2.74,35,35,0,0,1-27.81-27.81Z"/><path class="cls-6" d="M66,86.4a34.54,34.54,0,0,0-7.69,5.8A35,35,0,1,0,113.61,134,50,50,0,0,1,66,86.4Z"/></g></g></svg>