<svg xmlns="http://www.w3.org/2000/svg" viewBox="0 0 19 19"><defs><style>.cls-1{fill:#fff;}</style></defs><g id="레이어_2" data-name="레이어 2"><g id="레이어_1-2" data-name="레이어 1"><path class="cls-1" d="M8,12.66a3.73,3.73,0,0,0,.76.23,1,1,0,0,1,1.58,0,3.73,3.73,0,0,0,.76-.23L9.5,10Z"/><path class="cls-1" d="M13.42,8.18a3.89,3.89,0,0,0-.59-1.42A1,1,0,0,1,12,6.49a1,1,0,0,1-.26-.85,3.89,3.89,0,0,0-1.42-.59,1,1,0,0,1-1.58,0,3.89,3.89,0,0,0-1.42.59A1,1,0,0,1,7,6.49a1,1,0,0,1-.86.27,3.89,3.89,0,0,0-.59,1.42,1,1,0,0,1,0,1.58,3.89,3.89,0,0,0,.59,1.42,1,1,0,0,1,.86.26,1.11,1.11,0,0,1,.23.41L9.07,8.72l0,0,.06-.08s0,0,.08-.06,0,0,0,0l.06,0,.1,0h.18l.1,0,.06,0s0,0,0,0,.05,0,.08.06l.06.08,0,0,1.81,3.13a1.11,1.11,0,0,1,.23-.41,1,1,0,0,1,.86-.26,3.89,3.89,0,0,0,.59-1.42,1,1,0,0,1,0-1.58Z"/><path class="cls-1" d="M9.5,0A9.5,9.5,0,1,0,19,9.5,9.5,9.5,0,0,0,9.5,0Zm4.91,9.88a4.88,4.88,0,0,1-.8,1.92,1,1,0,0,1-.22,1.06,1,1,0,0,1-.92.25l1,1.67a.5.5,0,1,1-.86.5l-1-1.76a5.41,5.41,0,0,1-1.14.36,1,1,0,0,1-1.82,0,5.41,5.41,0,0,1-1.14-.36l-1,1.76a.5.5,0,1,1-.86-.5l1-1.67a1,1,0,0,1-.92-.25,1,1,0,0,1-.22-1.06,4.88,4.88,0,0,1-.8-1.92A1,1,0,0,1,4,9a1,1,0,0,1,.59-.91,4.92,4.92,0,0,1,.8-1.93,1,1,0,0,1,.22-1,1,1,0,0,1,1.06-.23,5,5,0,0,1,1.92-.79,1,1,0,0,1,1.82,0,5,5,0,0,1,1.92.79,1,1,0,0,1,1.06.23,1,1,0,0,1,.22,1,4.92,4.92,0,0,1,.8,1.93A1,1,0,0,1,15,9,1,1,0,0,1,14.41,9.88Z"/></g></g></svg>