<svg xmlns="http://www.w3.org/2000/svg" viewBox="0 0 19 19"><defs><style>.cls-1{fill:#fff;}</style></defs><g id="레이어_2" data-name="레이어 2"><g id="레이어_1-2" data-name="레이어 1"><path class="cls-1" d="M15.17,12.85h0l-.09,0H15l-.07,0-.06-.05,0,0,0,0L10.61,6.69,9.76,8.51a4.75,4.75,0,1,1-.91-.42l2.33-5L11.23,3l.06-.09.08-.06.09,0,.1,0h2.08a.5.5,0,0,1,.5.5.51.51,0,0,1-.5.5H12L11.3,5.21H18a9.5,9.5,0,1,0,.42,7.65H15.17Z"/><path class="cls-1" d="M7.87,12.56a.5.5,0,0,1-.67.24A.5.5,0,0,1,7,12.14L8.42,9a3.61,3.61,0,0,0-1-.16,3.49,3.49,0,1,0,1.92.57Z"/><path class="cls-1" d="M18.69,11.85A9.12,9.12,0,0,0,19,9.5a9.67,9.67,0,0,0-.51-3.06L16,11.85Z"/><polygon class="cls-1" points="11.49 6.21 15.09 11.36 17.49 6.21 11.49 6.21"/></g></g></svg>