<svg xmlns="http://www.w3.org/2000/svg" viewBox="0 0 19 19"><defs><style>.cls-1{fill:#fff;}</style></defs><g id="레이어_2" data-name="레이어 2"><g id="레이어_1-2" data-name="레이어 1"><path class="cls-1" d="M9.5,0A9.5,9.5,0,1,0,19,9.5,9.5,9.5,0,0,0,9.5,0Zm0,18A8.5,8.5,0,1,1,18,9.5,8.51,8.51,0,0,1,9.5,18Z"/><path class="cls-1" d="M15,9a1,1,0,0,0-.59-.91,4.92,4.92,0,0,0-.8-1.93,1,1,0,0,0-.22-1,1,1,0,0,0-1.06-.23,5,5,0,0,0-1.92-.79,1,1,0,0,0-1.82,0,5,5,0,0,0-1.92.79,1,1,0,0,0-1.06.23,1,1,0,0,0-.22,1,4.92,4.92,0,0,0-.8,1.93A1,1,0,0,0,4,9a1,1,0,0,0,.59.91,4.88,4.88,0,0,0,.8,1.92,1,1,0,0,0,.22,1.06,1,1,0,0,0,.92.25l-1,1.67a.5.5,0,1,0,.86.5l1-1.76a5.41,5.41,0,0,0,1.14.36,1,1,0,0,0,1.82,0,5.41,5.41,0,0,0,1.14-.36l1,1.76a.5.5,0,1,0,.86-.5l-1-1.67a1,1,0,0,0,.92-.25,1,1,0,0,0,.22-1.06,4.88,4.88,0,0,0,.8-1.92A1,1,0,0,0,15,9Zm-1.58.79a3.89,3.89,0,0,1-.59,1.42,1,1,0,0,0-.86.26,1.11,1.11,0,0,0-.23.41L9.93,8.72l0,0-.06-.08s0,0-.08-.06,0,0,0,0l-.06,0-.1,0H9.41l-.1,0-.06,0s0,0,0,0-.05,0-.08.06l-.06.08,0,0L7.26,11.85A1.11,1.11,0,0,0,7,11.44a1,1,0,0,0-.86-.26,3.89,3.89,0,0,1-.59-1.42,1,1,0,0,0,0-1.58,3.89,3.89,0,0,1,.59-1.42A1,1,0,0,0,7,6.49a1,1,0,0,0,.26-.85,3.89,3.89,0,0,1,1.42-.59,1,1,0,0,0,1.58,0,3.89,3.89,0,0,1,1.42.59,1,1,0,0,0,.26.85,1,1,0,0,0,.86.27,3.89,3.89,0,0,1,.59,1.42,1,1,0,0,0,0,1.58Zm-3.13,3.13a1,1,0,0,0-1.58,0A3.73,3.73,0,0,1,8,12.66L9.5,10l1.55,2.69A3.73,3.73,0,0,1,10.29,12.89Z"/></g></g></svg>