<svg xmlns="http://www.w3.org/2000/svg" viewBox="0 0 19 19"><defs><style>.cls-1{fill:#fff;}</style></defs><g id="레이어_2" data-name="레이어 2"><g id="레이어_1-2" data-name="레이어 1"><path class="cls-1" d="M9.5,0A9.5,9.5,0,1,0,19,9.5,9.5,9.5,0,0,0,9.5,0Zm0,18A8.5,8.5,0,1,1,18,9.5,8.51,8.51,0,0,1,9.5,18Z"/><path class="cls-1" d="M13.86,8.79,11.68,8,10.08,6.3a.74.74,0,0,0-.9-.13l-.09,0L7,7.52H7l-.1.1a1.09,1.09,0,0,0-.11.1h0l-1.46,2a.75.75,0,1,0,1.21.88l1.39-1.9.85-.52-.18,3h0l-1.1,2.12-1.67,1.7a.75.75,0,0,0,1.07,1l1.75-1.78a.47.47,0,0,0,.06-.09.71.71,0,0,0,.07-.09l.83-1.59,1.15,1.22L11.22,16a.74.74,0,0,0,.9.56.75.75,0,0,0,.56-.9l-.57-2.43s0,0,0-.05a.75.75,0,0,0-.06-.13.57.57,0,0,0-.08-.13l0,0-1.86-2,.13-2.32.51.54h0l.12.09a.57.57,0,0,0,.13.08h0l2.34.86a.75.75,0,1,0,.52-1.41Z"/><path class="cls-1" d="M9.65,5.8A1.75,1.75,0,1,0,8,4,1.74,1.74,0,0,0,9.65,5.8Z"/></g></g></svg>