<svg xmlns="http://www.w3.org/2000/svg" viewBox="0 0 19 19"><defs><style>.cls-1{fill:#fff;}</style></defs><g id="레이어_2" data-name="레이어 2"><g id="레이어_1-2" data-name="레이어 1"><path class="cls-1" d="M8.46,6.81A3.62,3.62,0,0,1,8.14,7a2.3,2.3,0,0,1-.35.2,2.39,2.39,0,0,1-.37.15A1.51,1.51,0,0,1,7,7.44a.85.85,0,0,1-.39-.08.69.69,0,0,1-.32-.27.85.85,0,0,1-.16-.76,1,1,0,0,1,.48-.57L8.91,4.43a1,1,0,0,1,.36-.17,1.76,1.76,0,0,1,.45-.07,1.34,1.34,0,0,1,.82.26.87.87,0,0,1,.35.78v8.5a.9.9,0,0,1-.37.82,1.41,1.41,0,0,1-.83.26,1.63,1.63,0,0,1-.45-.07,1.14,1.14,0,0,1-.4-.19,1,1,0,0,1-.28-.34,1,1,0,0,1-.1-.48Z"/><path class="cls-1" d="M9.5,0A9.5,9.5,0,1,0,19,9.5,9.5,9.5,0,0,0,9.5,0Zm0,18A8.5,8.5,0,1,1,18,9.5,8.51,8.51,0,0,1,9.5,18Z"/></g></g></svg>