<svg xmlns="http://www.w3.org/2000/svg" viewBox="0 0 19 19"><defs><style>.cls-1{fill:#fff;}</style></defs><g id="레이어_2" data-name="레이어 2"><g id="레이어_1-2" data-name="레이어 1"><path class="cls-1" d="M9.5,19A9.5,9.5,0,1,0,0,9.5,9.5,9.5,0,0,0,9.5,19ZM5.12,11.4,9,4.71a1,1,0,0,1,.68-.53,1.22,1.22,0,0,1,.81.11,1,1,0,0,1,.6.67,1.18,1.18,0,0,1-.18.87L7.78,11.09H9.94V9a1.29,1.29,0,0,1,.27-.8,1.14,1.14,0,0,1,.94-.35,1.14,1.14,0,0,1,.94.35,1.2,1.2,0,0,1,.28.8v2.14h.68a1.72,1.72,0,0,1,.5.07.86.86,0,0,1,.31.19.57.57,0,0,1,.14.28A1.12,1.12,0,0,1,14,12a1,1,0,0,1-.2.62,1,1,0,0,1-.79.26h-.68v.95a1.1,1.1,0,0,1,0,.35.81.81,0,0,1-.19.35,1.06,1.06,0,0,1-.37.26,1.45,1.45,0,0,1-.61.11,1.43,1.43,0,0,1-.6-.11,1.21,1.21,0,0,1-.38-.26.9.9,0,0,1-.18-.35,1.1,1.1,0,0,1-.05-.35v-.95H5.72a.73.73,0,0,1-.48-.15A.68.68,0,0,1,5,12.32a1.21,1.21,0,0,1,0-.47A1.49,1.49,0,0,1,5.12,11.4Z"/></g></g></svg>