<svg xmlns="http://www.w3.org/2000/svg" viewBox="0 0 19 19"><defs><style>.cls-1{fill:#fff;}</style></defs><g id="레이어_2" data-name="레이어 2"><g id="레이어_1-2" data-name="레이어 1"><circle class="cls-1" cx="12.75" cy="12.75" r="0.75"/><circle class="cls-1" cx="6.25" cy="12.75" r="0.75"/><rect class="cls-1" x="5.5" y="5.5" width="8" height="5.5" rx="0.96"/><path class="cls-1" d="M9.5,0A9.5,9.5,0,1,0,19,9.5,9.5,9.5,0,0,0,9.5,0ZM4,9.5H3.5A.5.5,0,0,1,3,9V7a.5.5,0,0,1,.5-.5H4Zm10.5,4.05a1,1,0,0,1-.95.95H13.5v1a.5.5,0,0,1-.5.5H12a.5.5,0,0,1-.5-.5v-1h-4v1A.5.5,0,0,1,7,16H6a.5.5,0,0,1-.5-.5v-1h0a1,1,0,0,1-1-.95V5.45a1,1,0,0,1,1-1h8.1a1,1,0,0,1,.95,1ZM16,9a.5.5,0,0,1-.5.5H15v-3h.5A.5.5,0,0,1,16,7Z"/></g></g></svg>