<svg xmlns="http://www.w3.org/2000/svg" viewBox="0 0 19 19"><defs><style>.cls-1{fill:#fff;}</style></defs><g id="레이어_2" data-name="레이어 2"><g id="레이어_1-2" data-name="레이어 1"><path class="cls-1" d="M10.22,13.35h8A9.49,9.49,0,0,0,19,9.5a8.77,8.77,0,0,0-.08-1.15H6.72Z"/><path class="cls-1" d="M5.35,8.14s0,0,0-.05a.25.25,0,0,1,0-.09.3.3,0,0,1,0-.1.43.43,0,0,1,0-.05.08.08,0,0,1,0,0,.44.44,0,0,1,0-.1.11.11,0,0,1,0-.08.22.22,0,0,1,0-.08l.07-.08,0,0,0,0,.09,0,.1,0H9.5l1.32-3.62v0l.06-.09,0-.07L11,3.49l.07-.05.09,0,.1,0h5.51a9.5,9.5,0,0,0-16,10H9Z"/><path class="cls-1" d="M9.5,19a9.45,9.45,0,0,0,8.14-4.65H1.36A9.45,9.45,0,0,0,9.5,19Z"/><path class="cls-1" d="M17.5,4.4H11.64L10.56,7.35h8.19A9.31,9.31,0,0,0,17.5,4.4ZM13.2,6.6A.75.75,0,1,1,14,5.85.75.75,0,0,1,13.2,6.6Zm2.5,0a.75.75,0,1,1,.75-.75A.75.75,0,0,1,15.7,6.6Z"/></g></g></svg>