<svg xmlns="http://www.w3.org/2000/svg" viewBox="0 0 19 19"><defs><style>.cls-1{fill:#fff;}</style></defs><g id="레이어_2" data-name="레이어 2"><g id="레이어_1-2" data-name="레이어 1"><path class="cls-1" d="M9.45,13.15a2.42,2.42,0,0,0,1.44-.35,1.39,1.39,0,0,0,.46-1.18v-.24a1,1,0,0,0-.52-1,2.89,2.89,0,0,0-1.38-.29.78.78,0,0,1-.68-.27.93.93,0,0,1-.19-.54,1,1,0,0,1,.19-.57.82.82,0,0,1,.68-.24,2.56,2.56,0,0,0,.64-.07,1.21,1.21,0,0,0,.49-.21,1,1,0,0,0,.33-.41A1.48,1.48,0,0,0,11,7.14c0-.87-.5-1.3-1.51-1.3a2.42,2.42,0,0,0-.78.1,1.32,1.32,0,0,0-.49.25A.91.91,0,0,0,8,6.53a1,1,0,0,0-.08.36.81.81,0,0,1-.29.65,1.3,1.3,0,0,1-.89.26,1.17,1.17,0,0,1-.85-.25,1,1,0,0,1-.25-.79,2.46,2.46,0,0,1,.16-.82,2.21,2.21,0,0,1,.6-.87,3.5,3.5,0,0,1,1.2-.68,5.93,5.93,0,0,1,2-.27,7.55,7.55,0,0,1,1.55.15,3.56,3.56,0,0,1,1.21.48,2.36,2.36,0,0,1,.8.86,2.62,2.62,0,0,1,.29,1.27,3,3,0,0,1-.3,1.49,2.11,2.11,0,0,1-.86.84,2.66,2.66,0,0,1,1.13.8,2.17,2.17,0,0,1,.41,1.37v.24a3.1,3.1,0,0,1-.35,1.52,2.65,2.65,0,0,1-.93,1,4.3,4.3,0,0,1-1.38.56,8.08,8.08,0,0,1-1.67.17,7.11,7.11,0,0,1-1.92-.23A4.56,4.56,0,0,1,6.22,14a2.39,2.39,0,0,1-.76-.84,1.94,1.94,0,0,1-.24-.91,1,1,0,0,1,.26-.74,1.23,1.23,0,0,1,.88-.25,2.16,2.16,0,0,1,.62.07,1.18,1.18,0,0,1,.39.19.67.67,0,0,1,.18.3,1.13,1.13,0,0,1,0,.38.75.75,0,0,0,.46.63A2.68,2.68,0,0,0,9.45,13.15Z"/><path class="cls-1" d="M9.5,0A9.5,9.5,0,1,0,19,9.5,9.5,9.5,0,0,0,9.5,0Zm0,18A8.5,8.5,0,1,1,18,9.5,8.51,8.51,0,0,1,9.5,18Z"/></g></g></svg>