<svg xmlns="http://www.w3.org/2000/svg" viewBox="0 0 19 19"><defs><style>.cls-1{fill:#fff;}</style></defs><g id="레이어_2" data-name="레이어 2"><g id="레이어_1-2" data-name="레이어 1"><path class="cls-1" d="M9.13,10.88a6.84,6.84,0,0,1-1.53-.16,3.48,3.48,0,0,1-1.24-.53,2.59,2.59,0,0,1-.83-1,3.2,3.2,0,0,1-.31-1.47V7.44a3.32,3.32,0,0,1,.33-1.55,2.67,2.67,0,0,1,.91-1,4.07,4.07,0,0,1,1.36-.57,8,8,0,0,1,1.66-.17,7.49,7.49,0,0,1,1.69.18,3.86,3.86,0,0,1,1.37.58,2.77,2.77,0,0,1,.91,1,3.33,3.33,0,0,1,.33,1.56v4a3.38,3.38,0,0,1-.34,1.55,2.83,2.83,0,0,1-.92,1,3.92,3.92,0,0,1-1.38.59,7.19,7.19,0,0,1-1.72.19,6.18,6.18,0,0,1-1.83-.23,3.89,3.89,0,0,1-1.26-.6,2.43,2.43,0,0,1-.73-.85,2.1,2.1,0,0,1-.24-1,.85.85,0,0,1,.33-.71,1.48,1.48,0,0,1,.92-.26,1.37,1.37,0,0,1,.82.23.89.89,0,0,1,.34.69.85.85,0,0,0,.47.73,2.6,2.6,0,0,0,1.18.23,2.21,2.21,0,0,0,1.44-.42,1.5,1.5,0,0,0,.51-1.23V10.35A4.58,4.58,0,0,1,9.13,10.88Zm2.24-3.44a1.43,1.43,0,0,0-.49-1.22,2.2,2.2,0,0,0-1.4-.38,2.15,2.15,0,0,0-1.37.38,1.46,1.46,0,0,0-.48,1.22v.14A1.43,1.43,0,0,0,8.11,8.8a2.37,2.37,0,0,0,1.41.36,2.84,2.84,0,0,0,.72-.1,1.75,1.75,0,0,0,.58-.29,1.5,1.5,0,0,0,.4-.5,1.58,1.58,0,0,0,.15-.71Z"/><path class="cls-1" d="M9.5,0A9.5,9.5,0,1,0,19,9.5,9.5,9.5,0,0,0,9.5,0Zm0,18A8.5,8.5,0,1,1,18,9.5,8.51,8.51,0,0,1,9.5,18Z"/></g></g></svg>