<svg xmlns="http://www.w3.org/2000/svg" viewBox="0 0 19 19"><defs><style>.cls-1{fill:#fff;}</style></defs><g id="레이어_2" data-name="레이어 2"><g id="레이어_1-2" data-name="레이어 1"><path class="cls-1" d="M9.5,4.12a7.13,7.13,0,0,1,1.57.17,3.89,3.89,0,0,1,1.26.53,2.47,2.47,0,0,1,.85.88A2.4,2.4,0,0,1,13.49,7a2.19,2.19,0,0,1-.39,1.32,2.58,2.58,0,0,1-.94.81,2.94,2.94,0,0,1,1.25,1,2.56,2.56,0,0,1,.46,1.55v.18a2.45,2.45,0,0,1-.35,1.29,3,3,0,0,1-.93,1,4.47,4.47,0,0,1-1.4.61,6.87,6.87,0,0,1-3.37,0,4.41,4.41,0,0,1-1.39-.61,3.14,3.14,0,0,1-.95-1,2.45,2.45,0,0,1-.35-1.29v-.18a2.63,2.63,0,0,1,.45-1.55,2.91,2.91,0,0,1,1.26-1,2.57,2.57,0,0,1-.9-.82A2.12,2.12,0,0,1,5.54,7,2.4,2.4,0,0,1,5.85,5.7a2.44,2.44,0,0,1,.84-.88A4,4,0,0,1,8,4.29,7,7,0,0,1,9.5,4.12Zm1.93,7.43a1.47,1.47,0,0,0-.15-.69,1.27,1.27,0,0,0-.42-.47,1.8,1.8,0,0,0-.61-.27A3.67,3.67,0,0,0,9.5,10a3.47,3.47,0,0,0-.73.08,2,2,0,0,0-.63.27,1.39,1.39,0,0,0-.43.47,1.46,1.46,0,0,0-.16.69v.09a1.27,1.27,0,0,0,.15.6,1.55,1.55,0,0,0,.41.48,1.86,1.86,0,0,0,.61.32,2.45,2.45,0,0,0,.78.12,2.12,2.12,0,0,0,1.42-.44,1.38,1.38,0,0,0,.51-1.08ZM9.5,5.84a2.16,2.16,0,0,0-1.16.27A1,1,0,0,0,7.9,7a1,1,0,0,0,.44.93,2.07,2.07,0,0,0,1.16.29,2.22,2.22,0,0,0,1.2-.29A1,1,0,0,0,11.14,7a1,1,0,0,0-.44-.88A2.32,2.32,0,0,0,9.5,5.84Z"/><path class="cls-1" d="M9.5,0A9.5,9.5,0,1,0,19,9.5,9.5,9.5,0,0,0,9.5,0Zm0,18A8.5,8.5,0,1,1,18,9.5,8.51,8.51,0,0,1,9.5,18Z"/></g></g></svg>