<svg xmlns="http://www.w3.org/2000/svg" viewBox="0 0 19 19"><defs><style>.cls-1{fill:#fff;}</style></defs><g id="레이어_2" data-name="레이어 2"><g id="레이어_1-2" data-name="레이어 1"><rect class="cls-1" x="9.8" y="3" width="1.5" height="13" rx="0.75"/><rect class="cls-1" x="12.3" y="3" width="1.5" height="13" rx="0.75"/><path class="cls-1" d="M8.77,6.1c0-1.71-1-3.1-2.22-3.1S4.34,4.39,4.34,6.1A3.2,3.2,0,0,0,5.8,9v6.21a.75.75,0,0,0,1.5,0V9A3.19,3.19,0,0,0,8.77,6.1Z"/><path class="cls-1" d="M9.5,0A9.5,9.5,0,1,0,19,9.5,9.5,9.5,0,0,0,9.5,0Zm0,18A8.5,8.5,0,1,1,18,9.5,8.51,8.51,0,0,1,9.5,18Z"/></g></g></svg>