<svg xmlns="http://www.w3.org/2000/svg" viewBox="0 0 19 19"><defs><style>.cls-1{fill:#fff;}</style></defs><g id="레이어_2" data-name="레이어 2"><g id="레이어_1-2" data-name="레이어 1"><path class="cls-1" d="M9.5,0A9.5,9.5,0,1,0,19,9.5,9.5,9.5,0,0,0,9.5,0Zm0,18A8.5,8.5,0,1,1,18,9.5,8.51,8.51,0,0,1,9.5,18Z"/><path class="cls-1" d="M14.5,8H8.12L9.8,6.32A1.5,1.5,0,1,0,7.68,4.2L3.44,8.44a1.63,1.63,0,0,0-.33.49V9a1.43,1.43,0,0,0,0,1.1v0a1.63,1.63,0,0,0,.33.49L7.68,14.8A1.5,1.5,0,0,0,9.8,12.68L8.12,11H14.5a1.5,1.5,0,0,0,0-3Z"/></g></g></svg>