<svg xmlns="http://www.w3.org/2000/svg" viewBox="0 0 19 19"><defs><style>.cls-1{fill:#fff;}</style></defs><g id="레이어_2" data-name="레이어 2"><g id="레이어_1-2" data-name="레이어 1"><path class="cls-1" d="M9.5,0A9.5,9.5,0,1,0,19,9.5,9.5,9.5,0,0,0,9.5,0Zm6.94,7.8a.55.55,0,0,1-.06.18l-.1.15a.67.67,0,0,1-.14.15l-.05.06L13,10.61l1.19,3.66s0,.05,0,.08a1.36,1.36,0,0,1,0,.2v.19a.64.64,0,0,1-.06.18.71.71,0,0,1-.08.18l0,.07-.08.08-.15.13-.18.1-.09,0h-.08l-.2,0h-.19l-.18-.05a.76.76,0,0,1-.18-.09s0,0-.07,0L9.5,13.12,6.38,15.39s0,0-.07,0a.76.76,0,0,1-.18.09L6,15.56H5.76l-.2,0H5.48l-.09,0-.18-.1-.15-.13L5,15.17l0-.07a.71.71,0,0,1-.08-.18.64.64,0,0,1-.06-.18v-.19a1.36,1.36,0,0,1,0-.2s0,0,0-.08L6,10.61,2.91,8.34l-.05-.06a.67.67,0,0,1-.14-.15L2.62,8a.55.55,0,0,1-.06-.18.65.65,0,0,1,0-.19.24.24,0,0,1,0-.08s0-.07,0-.11a1.06,1.06,0,0,1,0-.19A.66.66,0,0,1,2.65,7a.42.42,0,0,1,0-.1l.06-.05a.67.67,0,0,1,.15-.14l.15-.1a.55.55,0,0,1,.18-.06l.19,0H7.36L8.55,2.86l0-.06a.52.52,0,0,1,.1-.18A.61.61,0,0,1,9,2.36a.59.59,0,0,1,.17-.1l.07,0H9.3a.68.68,0,0,1,.4,0h.11l.07,0a.59.59,0,0,1,.17.1.61.61,0,0,1,.26.26.52.52,0,0,1,.1.18l0,.06,1.19,3.67h3.94l.19,0a.55.55,0,0,1,.18.06l.15.1a.67.67,0,0,1,.15.14l.06.05a.42.42,0,0,1,0,.1.66.66,0,0,1,.09.19,1.06,1.06,0,0,1,0,.19s0,.07,0,.11a.24.24,0,0,1,0,.08A.65.65,0,0,1,16.44,7.8Z"/></g></g></svg>