<svg xmlns="http://www.w3.org/2000/svg" viewBox="0 0 19 19"><defs><style>.cls-1{fill:none;}.cls-2{fill:#fff;}</style></defs><g id="레이어_2" data-name="레이어 2"><g id="레이어_1-2" data-name="레이어 1"><path class="cls-1" d="M17.66,11.85A8.29,8.29,0,0,0,18,9.5a9.07,9.07,0,0,0-.16-1.66l-1.87,4Z"/><path class="cls-1" d="M15.17,12.85h0l-.09,0H15l-.07,0-.06-.05,0,0,0,0L10.61,6.69,9.76,8.51a4.75,4.75,0,1,1-.91-.42l2.33-5L11.23,3l.06-.09.08-.06.09,0,.1,0h2.08a.5.5,0,0,1,.5.5.51.51,0,0,1-.5.5H12L11.3,5.21h5.53a8.49,8.49,0,1,0,.48,7.64H15.17Z"/><path class="cls-2" d="M16,11.85l1.87-4a9,9,0,0,0-.43-1.45l-2.32,5-3.6-5.14h5.85a9.4,9.4,0,0,0-.51-1H11.3L12,3.8h1.68a.51.51,0,0,0,.5-.5.5.5,0,0,0-.5-.5H11.56l-.1,0-.09,0-.08.06L11.23,3l-.05.06-2.33,5a4.48,4.48,0,1,0,.91.42l.85-1.82,4.16,6,0,0,0,0,.06.05.07,0H15l.09,0h2.18a8.44,8.44,0,0,0,.35-1Zm-5.05.49a3.5,3.5,0,1,1-3.5-3.5,3.61,3.61,0,0,1,1,.16L7,12.14a.5.5,0,0,0,.24.66.5.5,0,0,0,.67-.24L9.34,9.41A3.5,3.5,0,0,1,10.92,12.34Z"/><path class="cls-2" d="M19,9.5a9.67,9.67,0,0,0-.51-3.06A9.06,9.06,0,0,0,18,5.2a9.5,9.5,0,1,0,.42,7.65,8.29,8.29,0,0,0,.31-1A9.12,9.12,0,0,0,19,9.5ZM9.5,18A8.5,8.5,0,1,1,16.83,5.21a9.4,9.4,0,0,1,.51,1,1.34,1.34,0,0,0,.07.18,9,9,0,0,1,.43,1.45A9.07,9.07,0,0,1,18,9.5a8.29,8.29,0,0,1-.34,2.35A8.43,8.43,0,0,1,9.5,18Z"/></g></g></svg>