<svg xmlns="http://www.w3.org/2000/svg" viewBox="0 0 19 19"><defs><style>.cls-1{fill:#fff;}</style></defs><g id="레이어_2" data-name="레이어 2"><g id="레이어_1-2" data-name="레이어 1"><path class="cls-1" d="M9.5,0A9.5,9.5,0,1,0,19,9.5,9.5,9.5,0,0,0,9.5,0ZM16,6.69a.88.88,0,0,1,0,.17.35.35,0,0,1,0,.14.74.74,0,0,1,0,.14l-.06.14a.36.36,0,0,0,0,.09L10.8,16a.18.18,0,0,0-.05.07l-.09.12a1.14,1.14,0,0,1-.11.11.47.47,0,0,1-.1.1l-.14.1-.06,0,0,0-.16.07-.12.05-.15,0-.13,0H9.36l-.15,0-.14,0-.13-.05L8.8,16.6l-.05,0a.18.18,0,0,1-.07-.05l-.13-.09-.11-.1-.09-.1-.1-.14L8.2,16l-5-8.67,0-.07a1,1,0,0,1-.07-.15.93.93,0,0,1,0-.13.83.83,0,0,1,0-.15c0-.05,0-.11,0-.16s0,0,0-.08V6.56s0-.1,0-.15,0-.1,0-.14l0-.14A1.21,1.21,0,0,1,3.14,6a.75.75,0,0,1,.07-.12.75.75,0,0,1,.07-.12l.09-.12.1-.1.11-.09a.6.6,0,0,1,.13-.09s0,0,0,0l.08,0A.84.84,0,0,1,4,5.22l.15,0,.13,0,.17,0H14.58l.17,0,.13,0,.15,0a.84.84,0,0,1,.14.06l.08,0s0,0,0,0a.38.38,0,0,1,.13.09l.11.09.09.1.1.12a.41.41,0,0,1,.07.11.91.91,0,0,1,.07.14.61.61,0,0,1,.05.12s0,.1.05.15,0,.09,0,.13,0,.11,0,.17v0S16,6.67,16,6.69Z"/></g></g></svg>