<svg xmlns="http://www.w3.org/2000/svg" viewBox="0 0 19 19"><defs><style>.cls-1{fill:#fff;}</style></defs><g id="레이어_2" data-name="레이어 2"><g id="레이어_1-2" data-name="레이어 1"><path class="cls-1" d="M9.5,0A9.5,9.5,0,1,0,19,9.5,9.5,9.5,0,0,0,9.5,0Zm0,18A8.5,8.5,0,1,1,18,9.5,8.51,8.51,0,0,1,9.5,18Z"/><path class="cls-1" d="M17,10.23v0s0-.07,0-.1,0-.06,0-.09L16.9,10a.56.56,0,0,0,0-.08l-.07,0-.1-.06h0L10.75,7.6V5.12a3.83,3.83,0,0,0-.12-1c-.22-.87-.67-1.45-1.1-1.46H9.47c-.43,0-.88.59-1.1,1.46a3.83,3.83,0,0,0-.12,1V7.6L2.33,9.76h0l-.1.06-.07,0a.56.56,0,0,0,0,.08L2,10s0,.06,0,.09,0,.07,0,.1v.56s0,.05,0,.08l0,.09A.35.35,0,0,1,2.1,11l.06.07.08.06.09,0,.09,0,.08,0h0l5.7-.5h.07l.29,3.38-1.77.64,0,0-.08.05-.08.06a9231767036314.89,9231767036314.89,0,0,1-.1.16s0,.06,0,.09a.31.31,0,0,0,0,.1s0,0,0,0,0,0,0,.07a.13.13,0,0,1,0,.06l0,0,.06.09,0,.07.08.05.08,0,.09,0h.14L9.5,15.5l2.45.22h.14l.09,0,.08,0,.08-.05.05-.07.06-.09,0,0a.13.13,0,0,1,0-.06s0,0,0-.07,0,0,0,0a.31.31,0,0,0,0-.1s0-.06,0-.09a9231767036315,9231767036315,0,0,1-.1-.16l-.08-.06-.08-.05,0,0-1.77-.64.29-3.38h.07l5.7.5h0l.08,0,.09,0,.09,0,.08-.06L16.9,11a.35.35,0,0,1,.05-.08l0-.09s0,0,0-.08v-.54Z"/></g></g></svg>