<svg xmlns="http://www.w3.org/2000/svg" viewBox="0 0 19 19"><defs><style>.cls-1{fill:#fff;}</style></defs><g id="레이어_2" data-name="레이어 2"><g id="레이어_1-2" data-name="레이어 1"><path class="cls-1" d="M9.5,0A9.5,9.5,0,1,0,19,9.5,9.5,9.5,0,0,0,9.5,0Zm0,18A8.5,8.5,0,1,1,18,9.5,8.51,8.51,0,0,1,9.5,18Z"/><circle class="cls-1" cx="9.5" cy="9.5" r="3.5"/><rect class="cls-1" x="14.25" y="8" width="1.5" height="3" rx="0.75" transform="translate(5.5 24.5) rotate(-90)"/><rect class="cls-1" x="3.25" y="8" width="1.5" height="3" rx="0.75" transform="translate(-5.5 13.5) rotate(-90)"/><rect class="cls-1" x="4.86" y="11.89" width="1.5" height="3" rx="0.75" transform="translate(11.11 -0.05) rotate(45)"/><rect class="cls-1" x="12.64" y="4.11" width="1.5" height="3" rx="0.75" transform="translate(7.89 -7.82) rotate(45)"/><rect class="cls-1" x="12.64" y="11.89" width="1.5" height="3" rx="0.75" transform="translate(-5.55 13.39) rotate(-45)"/><rect class="cls-1" x="4.86" y="4.11" width="1.5" height="3" rx="0.75" transform="translate(-2.32 5.61) rotate(-45)"/><rect class="cls-1" x="8.75" y="13.5" width="1.5" height="3" rx="0.75"/><rect class="cls-1" x="8.75" y="2.5" width="1.5" height="3" rx="0.75"/></g></g></svg>