<svg xmlns="http://www.w3.org/2000/svg" viewBox="0 0 19 19"><defs><style>.cls-1{fill:#fff;}</style></defs><g id="레이어_2" data-name="레이어 2"><g id="레이어_1-2" data-name="레이어 1"><path class="cls-1" d="M10.63,6.22a.93.93,0,0,0-.44-.28,2.32,2.32,0,0,0-.71-.09,2.46,2.46,0,0,0-.73.09.85.85,0,0,0-.43.29,1.09,1.09,0,0,0-.22.5A3.73,3.73,0,0,0,8,7.45v4.13a3.69,3.69,0,0,0,.06.71,1.05,1.05,0,0,0,.22.49.9.9,0,0,0,.43.28,2.46,2.46,0,0,0,.73.09,1.38,1.38,0,0,0,1.17-.4,1.9,1.9,0,0,0,.3-1.17V7.45a3.73,3.73,0,0,0-.09-.73A1.1,1.1,0,0,0,10.63,6.22Z"/><path class="cls-1" d="M9.5,0A9.5,9.5,0,1,0,19,9.5,9.5,9.5,0,0,0,9.5,0Zm3.89,11.56a4.23,4.23,0,0,1-.31,1.53,2.71,2.71,0,0,1-.79,1,3.08,3.08,0,0,1-1.22.58,6.44,6.44,0,0,1-1.59.18,7.13,7.13,0,0,1-1.62-.17,3.14,3.14,0,0,1-1.22-.58,2.57,2.57,0,0,1-.76-1,3.86,3.86,0,0,1-.27-1.54V7.44A3.86,3.86,0,0,1,5.88,5.9a2.57,2.57,0,0,1,.76-1,3.14,3.14,0,0,1,1.22-.58,7.13,7.13,0,0,1,1.62-.17,6.69,6.69,0,0,1,1.62.18,3.2,3.2,0,0,1,1.23.59,2.62,2.62,0,0,1,.78,1,3.94,3.94,0,0,1,.28,1.55Z"/></g></g></svg>