<svg xmlns="http://www.w3.org/2000/svg" viewBox="0 0 19 19"><defs><style>.cls-1{fill:#fff;}</style></defs><g id="레이어_2" data-name="레이어 2"><g id="레이어_1-2" data-name="레이어 1"><path class="cls-1" d="M9.86,8.15a7.36,7.36,0,0,1,1.51.15,3.7,3.7,0,0,1,1.25.52,2.55,2.55,0,0,1,.85,1,3.22,3.22,0,0,1,.31,1.46v.32a3.13,3.13,0,0,1-.34,1.54,2.83,2.83,0,0,1-.91,1,3.76,3.76,0,0,1-1.35.58,8,8,0,0,1-1.66.17,7.49,7.49,0,0,1-1.69-.18,3.86,3.86,0,0,1-1.37-.58,2.77,2.77,0,0,1-.91-1,3.31,3.31,0,0,1-.33-1.54v-4A3.24,3.24,0,0,1,5.56,6a2.91,2.91,0,0,1,.92-1,3.88,3.88,0,0,1,1.39-.6,7.17,7.17,0,0,1,1.71-.19,6.41,6.41,0,0,1,1.85.23,4.08,4.08,0,0,1,1.31.6,2.56,2.56,0,0,1,.78.84,2,2,0,0,1,.26.94.88.88,0,0,1-.35.73,1.46,1.46,0,0,1-.9.25,1.31,1.31,0,0,1-.82-.23.88.88,0,0,1-.36-.66.81.81,0,0,0-.52-.74,2.87,2.87,0,0,0-1.25-.24,2.15,2.15,0,0,0-1.44.43A1.5,1.5,0,0,0,7.63,7.5V8.61a2.76,2.76,0,0,1,1-.37A7.69,7.69,0,0,1,9.86,8.15ZM7.63,11.56a1.43,1.43,0,0,0,.49,1.22,2.2,2.2,0,0,0,1.4.38,2,2,0,0,0,1.34-.38,1.46,1.46,0,0,0,.48-1.22V11.4a1.36,1.36,0,0,0-.48-1.2,2.43,2.43,0,0,0-1.38-.33,2.71,2.71,0,0,0-.71.09,1.79,1.79,0,0,0-.59.28,1.37,1.37,0,0,0-.4.49,1.45,1.45,0,0,0-.15.68Z"/><path class="cls-1" d="M9.5,0A9.5,9.5,0,1,0,19,9.5,9.5,9.5,0,0,0,9.5,0Zm0,18A8.5,8.5,0,1,1,18,9.5,8.51,8.51,0,0,1,9.5,18Z"/></g></g></svg>