<svg xmlns="http://www.w3.org/2000/svg" viewBox="0 0 19 19"><defs><style>.cls-1{fill:none;}.cls-2{fill:#fff;}</style></defs><g id="레이어_2" data-name="레이어 2"><g id="레이어_1-2" data-name="레이어 1"><path class="cls-1" d="M7.54,8.16h.91a.75.75,0,0,1,0,1.5H5.39L3.46,11h0l-.11.14h0a.43.43,0,0,0-.1.27.5.5,0,0,0,.44.48h0l.06,0H17.64A8.44,8.44,0,0,0,18,9.62a.58.58,0,0,1-.19,0h-2a.75.75,0,0,1,0-1.5h2l.09,0a8.13,8.13,0,0,0-.25-1.11H9.09Zm3.56,0h2a.75.75,0,0,1,0,1.5h-2a.75.75,0,1,1,0-1.5Z"/><path class="cls-1" d="M3.75,12.93a1.5,1.5,0,0,1-.86-2.73h0L8.52,6.26a.72.72,0,0,1,.2-.09l0,0A1.31,1.31,0,0,1,9,6.09l.1,0h8.15a8.5,8.5,0,1,0,0,6.86Z"/><path class="cls-2" d="M9.13,6.07l-.1,0a1.31,1.31,0,0,0-.27.06l0,0a.72.72,0,0,0-.2.09L2.89,10.2h0a1.5,1.5,0,0,0,.86,2.73H17.28a9.19,9.19,0,0,0,.36-1H3.75l-.06,0h0a.5.5,0,0,1-.44-.48.43.43,0,0,1,.1-.27h0L3.46,11h0L5.39,9.66H8.45a.75.75,0,0,0,0-1.5H7.54L9.09,7.07h8.55a9.19,9.19,0,0,0-.36-1Z"/><path class="cls-2" d="M11.1,9.66h2a.75.75,0,0,0,0-1.5h-2a.75.75,0,1,0,0,1.5Z"/><path class="cls-2" d="M15.8,8.16a.75.75,0,0,0,0,1.5h2a.58.58,0,0,0,.19,0s0-.08,0-.12a9.53,9.53,0,0,0-.11-1.32l-.09,0Z"/><path class="cls-2" d="M9.5,0a9.5,9.5,0,1,0,8.85,12.93,9,9,0,0,0,.33-1A9.75,9.75,0,0,0,19,9.5a9.75,9.75,0,0,0-.32-2.43,9,9,0,0,0-.33-1A9.48,9.48,0,0,0,9.5,0Zm8.39,8.18A9.53,9.53,0,0,1,18,9.5s0,.08,0,.12a8.44,8.44,0,0,1-.35,2.31,9.19,9.19,0,0,1-.36,1,8.5,8.5,0,1,1,0-6.86,9.19,9.19,0,0,1,.36,1A8.13,8.13,0,0,1,17.89,8.18Z"/></g></g></svg>