<svg xmlns="http://www.w3.org/2000/svg" viewBox="0 0 19 19"><defs><style>.cls-1{fill:#fff;}</style></defs><g id="레이어_2" data-name="레이어 2"><g id="레이어_1-2" data-name="레이어 1"><path class="cls-1" d="M9.5,0A9.5,9.5,0,1,0,19,9.5,9.5,9.5,0,0,0,9.5,0Zm0,18A8.5,8.5,0,1,1,18,9.5,8.51,8.51,0,0,1,9.5,18Z"/><path class="cls-1" d="M13.49,12.34a1.62,1.62,0,0,0,0-.19.62.62,0,0,0-.07-.19.13.13,0,0,0,0-.06l-1.73-3h.42a.58.58,0,0,0,.19,0,1.06,1.06,0,0,0,.19-.06l.06,0s.06-.06.09-.08l.16-.14a.86.86,0,0,0,.1-.16l.09-.17A1.18,1.18,0,0,0,13,8s0-.08,0-.12,0,0,0-.06a1.29,1.29,0,0,0,0-.19.62.62,0,0,0-.07-.19.13.13,0,0,0,0-.06l-2.5-4.33s0,0,0,0a1.07,1.07,0,0,0-.14-.16l-.14-.13-.05,0h0l-.12,0a1.06,1.06,0,0,0-.19-.06H9.31a1.06,1.06,0,0,0-.19.06L9,2.71H9L9,2.75l-.14.13A1.07,1.07,0,0,0,8.67,3s0,0,0,0L6.13,7.41a.13.13,0,0,0,0,.06.62.62,0,0,0-.07.19,1.29,1.29,0,0,0,0,.19s0,0,0,.06S6,8,6,8a1.18,1.18,0,0,0,0,.2l.09.17a.86.86,0,0,0,.1.16l.16.14s0,.06.09.08l.06,0a1.06,1.06,0,0,0,.19.06.58.58,0,0,0,.19,0h.42l-1.73,3a.13.13,0,0,0,0,.06.62.62,0,0,0-.07.19,1.62,1.62,0,0,0,0,.19s0,0,0,.06,0,.08,0,.13a1.29,1.29,0,0,0,0,.19l.09.18.1.15a1.07,1.07,0,0,0,.16.14s0,.06.09.08l.06,0a1.06,1.06,0,0,0,.19.06.58.58,0,0,0,.19,0H8.5v3h2v-3h2.06a.58.58,0,0,0,.19,0,1.06,1.06,0,0,0,.19-.06l.06,0s.06-.06.09-.08a1.07,1.07,0,0,0,.16-.14l.1-.15.09-.18a1.29,1.29,0,0,0,0-.19s0-.08,0-.13S13.49,12.36,13.49,12.34Z"/></g></g></svg>