<svg xmlns="http://www.w3.org/2000/svg" viewBox="0 0 19 19"><defs><style>.cls-1{fill:#fff;}</style></defs><g id="레이어_2" data-name="레이어 2"><g id="레이어_1-2" data-name="레이어 1"><path class="cls-1" d="M2.78,2.78a9.5,9.5,0,1,0,13.44,0A9.51,9.51,0,0,0,2.78,2.78ZM15.51,15.51a8.5,8.5,0,1,1,0-12A8.5,8.5,0,0,1,15.51,15.51Z"/><path class="cls-1" d="M12,4.9,7.46,9.41V7a1.5,1.5,0,0,0-3,0v6a1.42,1.42,0,0,0,.12.57v0a1.82,1.82,0,0,0,.31.47,1.82,1.82,0,0,0,.47.31h0a1.42,1.42,0,0,0,.57.12h6a1.5,1.5,0,0,0,0-3H9.59L14.1,7A1.51,1.51,0,1,0,12,4.9Z"/></g></g></svg>