<svg xmlns="http://www.w3.org/2000/svg" viewBox="0 0 19 19"><defs><style>.cls-1{fill:#fff;}</style></defs><g id="레이어_2" data-name="레이어 2"><g id="레이어_1-2" data-name="레이어 1"><path class="cls-1" d="M9.5,0A9.5,9.5,0,1,0,19,9.5,9.5,9.5,0,0,0,9.5,0Zm.36,2.31A1.75,1.75,0,1,1,8,4,1.75,1.75,0,0,1,9.86,2.31Zm4.45,7.45a.77.77,0,0,1-1,.44L11,9.34h0a.57.57,0,0,1-.13-.08l-.12-.09h0l-.51-.54-.13,2.32,1.86,2,0,0a.57.57,0,0,1,.08.13.75.75,0,0,1,.06.13s0,0,0,.05l.57,2.43a.75.75,0,0,1-.56.9.74.74,0,0,1-.9-.56l-.52-2.23L9.55,12.56l-.83,1.59a.71.71,0,0,1-.07.09.47.47,0,0,1-.06.09L6.84,16.11a.75.75,0,0,1-1.07-1l1.67-1.7,1.1-2.12h0l.18-3-.85.52-1.39,1.9a.75.75,0,1,1-1.21-.88l1.46-2h0a1.09,1.09,0,0,1,.11-.1l.1-.1H7L9.09,6.21l.09,0a.74.74,0,0,1,.9.13L11.68,8l2.18.8A.76.76,0,0,1,14.31,9.76Z"/></g></g></svg>