<svg xmlns="http://www.w3.org/2000/svg" viewBox="0 0 19 19"><defs><style>.cls-1{fill:#fff;}</style></defs><g id="레이어_2" data-name="레이어 2"><g id="레이어_1-2" data-name="레이어 1"><path class="cls-1" d="M9.5,0A9.5,9.5,0,1,0,19,9.5,9.5,9.5,0,0,0,9.5,0Zm4,12.53a1.29,1.29,0,0,1,0,.19l-.09.18-.1.15a1.07,1.07,0,0,1-.16.14s-.05.06-.09.08l-.06,0a1.06,1.06,0,0,1-.19.06.58.58,0,0,1-.19,0H10.5v3h-2v-3H6.44a.58.58,0,0,1-.19,0,1.06,1.06,0,0,1-.19-.06l-.06,0s-.06-.06-.09-.08a1.07,1.07,0,0,1-.16-.14l-.1-.15-.09-.18a1.29,1.29,0,0,1,0-.19s0-.08,0-.13,0,0,0-.06a1.62,1.62,0,0,1,0-.19A.62.62,0,0,1,5.62,12a.13.13,0,0,1,0-.06l1.73-3H6.94a.58.58,0,0,1-.19,0,1.06,1.06,0,0,1-.19-.06l-.06,0s-.06-.06-.09-.08l-.16-.14a.86.86,0,0,1-.1-.16l-.09-.17A1.18,1.18,0,0,1,6,8S6,8,6,7.91s0,0,0-.06a1.29,1.29,0,0,1,0-.19.62.62,0,0,1,.07-.19.13.13,0,0,1,0-.06l2.5-4.33s0,0,0,0a1.07,1.07,0,0,1,.14-.16L9,2.75l.05,0H9l.12,0a1.06,1.06,0,0,1,.19-.06h.38a1.06,1.06,0,0,1,.19.06l.12,0h0l.05,0,.14.13a1.07,1.07,0,0,1,.14.16s0,0,0,0l2.5,4.33a.13.13,0,0,1,0,.06.62.62,0,0,1,.07.19,1.29,1.29,0,0,1,0,.19s0,0,0,.06S13,8,13,8a1.18,1.18,0,0,1,0,.2l-.09.17a.86.86,0,0,1-.1.16l-.16.14s-.05.06-.09.08l-.06,0a1.06,1.06,0,0,1-.19.06.58.58,0,0,1-.19,0h-.42l1.73,3a.13.13,0,0,1,0,.06.62.62,0,0,1,.07.19,1.62,1.62,0,0,1,0,.19s0,0,0,.06S13.48,12.48,13.48,12.53Z"/></g></g></svg>