<svg xmlns="http://www.w3.org/2000/svg" viewBox="0 0 19 19"><defs><style>.cls-1{fill:#fff;}</style></defs><g id="레이어_2" data-name="레이어 2"><g id="레이어_1-2" data-name="레이어 1"><path class="cls-1" d="M19,9.5A9.5,9.5,0,1,0,9.5,19,9.5,9.5,0,0,0,19,9.5ZM1,9.5A8.5,8.5,0,1,1,9.5,18,8.51,8.51,0,0,1,1,9.5Z"/><path class="cls-1" d="M11,14.5V8.12L12.68,9.8A1.5,1.5,0,0,0,14.8,7.68L10.56,3.44a1.63,1.63,0,0,0-.49-.33h0a1.43,1.43,0,0,0-1.1,0h0a1.63,1.63,0,0,0-.49.33L4.2,7.68A1.5,1.5,0,1,0,6.32,9.8L8,8.12V14.5a1.5,1.5,0,0,0,3,0Z"/></g></g></svg>