<svg xmlns="http://www.w3.org/2000/svg" viewBox="0 0 19 19"><defs><style>.cls-1{fill:#fff;}</style></defs><g id="레이어_2" data-name="레이어 2"><g id="레이어_1-2" data-name="레이어 1"><path class="cls-1" d="M16.22,2.78a9.5,9.5,0,1,0,0,13.44A9.51,9.51,0,0,0,16.22,2.78ZM3.49,15.51a8.5,8.5,0,1,1,12,0A8.5,8.5,0,0,1,3.49,15.51Z"/><path class="cls-1" d="M14.1,12,9.59,7.46H12a1.5,1.5,0,0,0,0-3H6a1.42,1.42,0,0,0-.57.12h0a1.82,1.82,0,0,0-.47.31,1.82,1.82,0,0,0-.31.47v0A1.42,1.42,0,0,0,4.46,6v6a1.5,1.5,0,0,0,3,0V9.59L12,14.1A1.51,1.51,0,0,0,14.1,12Z"/></g></g></svg>