<svg xmlns="http://www.w3.org/2000/svg" viewBox="0 0 19 19"><defs><style>.cls-1{fill:#fff;}</style></defs><g id="레이어_2" data-name="레이어 2"><g id="레이어_1-2" data-name="레이어 1"><path class="cls-1" d="M9.5,0A9.5,9.5,0,1,0,19,9.5,9.5,9.5,0,0,0,9.5,0Zm2.83,5.61,1.06-1.06a.75.75,0,0,1,1.06,1.06L13.39,6.67a.75.75,0,1,1-1.06-1.06ZM8.75,3.25a.75.75,0,0,1,1.5,0v1.5a.75.75,0,0,1-1.5,0Zm-4.2,1.3a.75.75,0,0,1,1.06,0L6.67,5.61A.75.75,0,1,1,5.61,6.67L4.55,5.61A.75.75,0,0,1,4.55,4.55Zm-2,5a.76.76,0,0,1,.75-.75h1.5a.75.75,0,0,1,0,1.5H3.25A.76.76,0,0,1,2.5,9.5Zm4.17,3.89L5.61,14.45a.75.75,0,0,1-1.06-1.06l1.06-1.06a.75.75,0,1,1,1.06,1.06Zm3.58,2.36a.75.75,0,0,1-1.5,0v-1.5a.75.75,0,0,1,1.5,0ZM9.5,13A3.5,3.5,0,1,1,13,9.5,3.5,3.5,0,0,1,9.5,13Zm4.95,1.45a.75.75,0,0,1-1.06,0l-1.06-1.06a.75.75,0,1,1,1.06-1.06l1.06,1.06A.75.75,0,0,1,14.45,14.45Zm1.3-4.2h-1.5a.75.75,0,0,1,0-1.5h1.5a.75.75,0,0,1,0,1.5Z"/></g></g></svg>