<svg xmlns="http://www.w3.org/2000/svg" viewBox="0 0 19 19"><defs><style>.cls-1{fill:#fff;}</style></defs><g id="레이어_2" data-name="레이어 2"><g id="레이어_1-2" data-name="레이어 1"><path class="cls-1" d="M7.54,8.16h.91a.75.75,0,0,1,0,1.5H5.39L3.46,11h0l-.11.14h0a.43.43,0,0,0-.1.27.5.5,0,0,0,.44.48h0l.06,0H18.68A9.75,9.75,0,0,0,19,9.5a9.75,9.75,0,0,0-.32-2.43H9.09Zm8.26,0h2a.75.75,0,0,1,0,1.5h-2a.75.75,0,0,1,0-1.5Zm-4.7,0h2a.75.75,0,0,1,0,1.5h-2a.75.75,0,1,1,0-1.5Z"/><path class="cls-1" d="M3.75,12.93a1.5,1.5,0,0,1-.86-2.73h0L8.52,6.26a.72.72,0,0,1,.2-.09l0,0A1.31,1.31,0,0,1,9,6.09l.1,0h9.22a9.5,9.5,0,1,0,0,6.86Z"/></g></g></svg>