<svg xmlns="http://www.w3.org/2000/svg" viewBox="0 0 19 19"><defs><style>.cls-1{fill:#fff;}</style></defs><g id="레이어_2" data-name="레이어 2"><g id="레이어_1-2" data-name="레이어 1"><path class="cls-1" d="M9.5,0A9.5,9.5,0,1,0,19,9.5,9.5,9.5,0,0,0,9.5,0Zm4.2,5.57a1.07,1.07,0,0,1-.18.45L9.15,14.35a.8.8,0,0,1-.3.33,1,1,0,0,1-.41.15,1.71,1.71,0,0,1-.45,0,1.47,1.47,0,0,1-.42-.13,1,1,0,0,1-.37-.3A1.18,1.18,0,0,1,7,14a1.48,1.48,0,0,1,0-.42,1,1,0,0,1,.13-.38l4-7.32H6.34a1.11,1.11,0,0,1-.84-.26A1,1,0,0,1,5.27,5a1.54,1.54,0,0,1,0-.3.65.65,0,0,1,.17-.27.76.76,0,0,1,.32-.19,1.62,1.62,0,0,1,.54-.08h6a1.76,1.76,0,0,1,1.07.27.91.91,0,0,1,.36.77A2.86,2.86,0,0,1,13.7,5.57Z"/></g></g></svg>