<svg xmlns="http://www.w3.org/2000/svg" viewBox="0 0 19 19"><defs><style>.cls-1{fill:#fff;}</style></defs><g id="레이어_2" data-name="레이어 2"><g id="레이어_1-2" data-name="레이어 1"><path class="cls-1" d="M9.5,0A9.5,9.5,0,1,0,19,9.5,9.5,9.5,0,0,0,9.5,0Zm4.19,11.54a3.26,3.26,0,0,1-.33,1.53,2.72,2.72,0,0,1-.88,1,3.82,3.82,0,0,1-1.33.58,7.91,7.91,0,0,1-1.66.17,7.47,7.47,0,0,1-1.81-.2,4.53,4.53,0,0,1-1.31-.55,2.41,2.41,0,0,1-.79-.8,1.93,1.93,0,0,1-.27-1,1,1,0,0,1,.32-.82,1.25,1.25,0,0,1,.87-.29,1.75,1.75,0,0,1,.61.09,1,1,0,0,1,.37.22.8.8,0,0,1,.19.32,1.49,1.49,0,0,1,0,.36.74.74,0,0,0,.5.69,3,3,0,0,0,1.25.22,2.09,2.09,0,0,0,1.33-.36,1.45,1.45,0,0,0,.45-1.2v-.31a1.3,1.3,0,0,0-.58-1.18,2.43,2.43,0,0,0-1.46-.36H8.82l-.33.05-.35.09L7.67,10a6.92,6.92,0,0,1-.86.16,1.8,1.8,0,0,1-.53,0h0a1,1,0,0,1-.56-.38A1.23,1.23,0,0,1,5.55,9V5a.83.83,0,0,1,.25-.69,1.1,1.1,0,0,1,.68-.19h5.46a1.16,1.16,0,0,1,.84.26.86.86,0,0,1,0,1.19,1.11,1.11,0,0,1-.86.27H8v2.3a7.82,7.82,0,0,1,.8-.13,5.92,5.92,0,0,1,.7,0,7,7,0,0,1,1.61.17,4.1,4.1,0,0,1,1.34.54,2.73,2.73,0,0,1,.92,1,2.91,2.91,0,0,1,.35,1.47Z"/></g></g></svg>