<svg xmlns="http://www.w3.org/2000/svg" viewBox="0 0 19 19"><defs><style>.cls-1{fill:#fff;}</style></defs><g id="레이어_2" data-name="레이어 2"><g id="레이어_1-2" data-name="레이어 1"><path class="cls-1" d="M9.5,0A9.5,9.5,0,1,0,19,9.5,9.5,9.5,0,0,0,9.5,0Zm0,18A8.5,8.5,0,1,1,18,9.5,8.51,8.51,0,0,1,9.5,18Z"/><path class="cls-1" d="M14.5,6H12V5.3a1,1,0,0,0-1-1H8a1,1,0,0,0-1,1V6H4.5a1,1,0,0,0-1,1v5a1,1,0,0,0,1,1h10a1,1,0,0,0,1-1V7A1,1,0,0,0,14.5,6Zm-5,5.75A2.25,2.25,0,1,1,11.75,9.5,2.25,2.25,0,0,1,9.5,11.75Z"/></g></g></svg>