<svg xmlns="http://www.w3.org/2000/svg" viewBox="0 0 19 19"><defs><style>.cls-1{fill:#fff;}</style></defs><g id="레이어_2" data-name="레이어 2"><g id="레이어_1-2" data-name="레이어 1"><path class="cls-1" d="M9.5,0A9.5,9.5,0,1,0,19,9.5,9.5,9.5,0,0,0,9.5,0Zm0,18A8.5,8.5,0,1,1,18,9.5,8.51,8.51,0,0,1,9.5,18Z"/><path class="cls-1" d="M2.79,7.88a.47.47,0,0,1-.37-.12.36.36,0,0,1-.11-.27.59.59,0,0,1,0-.14.25.25,0,0,1,.08-.12.28.28,0,0,1,.14-.09.61.61,0,0,1,.24,0H6a.49.49,0,0,1,.38.12.41.41,0,0,1,.11.28.59.59,0,0,1,0,.14.25.25,0,0,1-.08.12l-.15.09a.78.78,0,0,1-.24,0H5v3.57a.48.48,0,0,1,0,.22.51.51,0,0,1-.13.16.56.56,0,0,1-.17.09l-.2,0-.21,0a.48.48,0,0,1-.31-.25.48.48,0,0,1,0-.22V7.88Z"/><path class="cls-1" d="M6.17,11.92l-.2-.1a.72.72,0,0,1-.11-.15.51.51,0,0,1,0-.17.88.88,0,0,1,0-.16L7.24,7.43a.54.54,0,0,1,.19-.25.65.65,0,0,1,.43-.12.65.65,0,0,1,.43.12.54.54,0,0,1,.19.25l1.39,3.93a.38.38,0,0,1,0,.35.47.47,0,0,1-.28.2.56.56,0,0,1-.41,0,.45.45,0,0,1-.23-.27l-.29-.88H7.1l-.3.91a.45.45,0,0,1-.23.24A.65.65,0,0,1,6.17,11.92ZM7.88,8.44,7.36,10h1Z"/><path class="cls-1" d="M12.28,10.17l-1.09,1.58a.46.46,0,0,1-.34.21.59.59,0,0,1-.39-.07.56.56,0,0,1-.16-.14,1.42,1.42,0,0,1-.08-.18.37.37,0,0,1,0-.18.41.41,0,0,1,.07-.15l1.3-1.77L10.31,7.8a.48.48,0,0,1-.08-.18.36.36,0,0,1,0-.18.61.61,0,0,1,.07-.17.49.49,0,0,1,.13-.12A.55.55,0,0,1,10.85,7a.48.48,0,0,1,.34.21l1.09,1.52,1.1-1.53A.44.44,0,0,1,13.71,7a.72.72,0,0,1,.41.12.53.53,0,0,1,.13.13.77.77,0,0,1,.07.16.54.54,0,0,1,0,.18.33.33,0,0,1-.07.16L13,9.47l1.26,1.73a.5.5,0,0,1-.55.76.6.6,0,0,1-.34-.24Z"/><path class="cls-1" d="M15,7.57a.38.38,0,0,1,.18-.35.65.65,0,0,1,.39-.12.69.69,0,0,1,.2,0,.51.51,0,0,1,.18.09.41.41,0,0,1,.12.14.46.46,0,0,1,0,.21v3.88a.46.46,0,0,1-.16.38.51.51,0,0,1-.18.09l-.2,0-.21,0a.51.51,0,0,1-.18-.09.4.4,0,0,1-.13-.16.48.48,0,0,1,0-.22Z"/></g></g></svg>