<svg xmlns="http://www.w3.org/2000/svg" viewBox="0 0 19 19"><defs><style>.cls-1{fill:#fff;}</style></defs><g id="레이어_2" data-name="레이어 2"><g id="레이어_1-2" data-name="레이어 1"><path class="cls-1" d="M16.22,16.22a9.5,9.5,0,1,0-13.44,0A9.51,9.51,0,0,0,16.22,16.22ZM3.49,3.49a8.5,8.5,0,1,1,0,12A8.5,8.5,0,0,1,3.49,3.49Z"/><path class="cls-1" d="M7,14.1l4.51-4.51V12a1.5,1.5,0,0,0,3,0V6a1.42,1.42,0,0,0-.12-.57v0a1.82,1.82,0,0,0-.31-.47,1.82,1.82,0,0,0-.47-.31h0A1.42,1.42,0,0,0,13,4.46H7a1.5,1.5,0,0,0,0,3H9.41L4.9,12A1.51,1.51,0,1,0,7,14.1Z"/></g></g></svg>