<svg xmlns="http://www.w3.org/2000/svg" viewBox="0 0 19 19"><defs><style>.cls-1{fill:#fff;}</style></defs><g id="레이어_2" data-name="레이어 2"><g id="레이어_1-2" data-name="레이어 1"><circle class="cls-1" cx="6.25" cy="12.75" r="0.75"/><path class="cls-1" d="M7.51,14.5l-1.4,3.86a9.3,9.3,0,0,0,6.78,0l-1.4-3.86Z"/><rect class="cls-1" x="5.5" y="5.5" width="8" height="5.5" rx="0.96"/><circle class="cls-1" cx="12.75" cy="12.75" r="0.75"/><path class="cls-1" d="M19,9.5A9.5,9.5,0,1,0,5.19,18L6.45,14.5h-1a1,1,0,0,1-1-.95V5.45a1,1,0,0,1,1-1h8.1a1,1,0,0,1,.95,1v8.1a1,1,0,0,1-.95.95h-1L13.81,18A9.49,9.49,0,0,0,19,9.5Z"/></g></g></svg>