<svg xmlns="http://www.w3.org/2000/svg" viewBox="0 0 19 19"><defs><style>.cls-1{fill:#fff;}</style></defs><g id="레이어_2" data-name="레이어 2"><g id="레이어_1-2" data-name="레이어 1"><path class="cls-1" d="M9.5,19A9.5,9.5,0,1,0,0,9.5,9.5,9.5,0,0,0,9.5,19Zm0-18A8.5,8.5,0,1,1,1,9.5,8.51,8.51,0,0,1,9.5,1Z"/><path class="cls-1" d="M4.5,11h6.38L9.2,12.68a1.5,1.5,0,0,0,2.12,2.12l4.24-4.24a1.63,1.63,0,0,0,.33-.49v0a1.43,1.43,0,0,0,0-1.1v0a1.63,1.63,0,0,0-.33-.49L11.32,4.2A1.5,1.5,0,0,0,9.2,6.32L10.88,8H4.5a1.5,1.5,0,0,0,0,3Z"/></g></g></svg>