<svg xmlns="http://www.w3.org/2000/svg" viewBox="0 0 19 19"><defs><style>.cls-1{fill:#fff;}</style></defs><g id="레이어_2" data-name="레이어 2"><g id="레이어_1-2" data-name="레이어 1"><path class="cls-1" d="M9.5,0A9.5,9.5,0,1,0,19,9.5,9.5,9.5,0,0,0,9.5,0Zm0,18A8.5,8.5,0,1,1,18,9.5,8.51,8.51,0,0,1,9.5,18Z"/><path class="cls-1" d="M13.55,4.5H5.45a1,1,0,0,0-1,1v8.1a1,1,0,0,0,1,.95h0v1A.5.5,0,0,0,6,16H7a.5.5,0,0,0,.5-.5v-1h4v1a.5.5,0,0,0,.5.5h1a.5.5,0,0,0,.5-.5v-1h.05a1,1,0,0,0,.95-.95V5.45A1,1,0,0,0,13.55,4.5Zm-7.3,9A.75.75,0,1,1,7,12.75.76.76,0,0,1,6.25,13.5Zm6.5,0a.75.75,0,1,1,.75-.75A.76.76,0,0,1,12.75,13.5ZM13.5,10a1,1,0,0,1-1,1H6.46a1,1,0,0,1-1-1V6.46a1,1,0,0,1,1-1h6.08a1,1,0,0,1,1,1Z"/><path class="cls-1" d="M15,6.5h.5A.5.5,0,0,1,16,7V9a.5.5,0,0,1-.5.5H15a0,0,0,0,1,0,0v-3A0,0,0,0,1,15,6.5Z"/><path class="cls-1" d="M3,6.5h.5A.5.5,0,0,1,4,7V9a.5.5,0,0,1-.5.5H3a0,0,0,0,1,0,0v-3A0,0,0,0,1,3,6.5Z" transform="translate(7 16) rotate(-180)"/></g></g></svg>