<svg xmlns="http://www.w3.org/2000/svg" viewBox="0 0 19 19"><defs><style>.cls-1{fill:#fff;}</style></defs><g id="레이어_2" data-name="레이어 2"><g id="레이어_1-2" data-name="레이어 1"><path class="cls-1" d="M9.5,0A9.5,9.5,0,1,0,19,9.5,9.5,9.5,0,0,0,9.5,0Zm0,18A8.5,8.5,0,1,1,18,9.5,8.51,8.51,0,0,1,9.5,18Z"/><path class="cls-1" d="M13.6,6.27a3.39,3.39,0,0,1-.19,1.13,4.07,4.07,0,0,1-.51.94,6.06,6.06,0,0,1-.72.81q-.42.38-.84.72a3.3,3.3,0,0,0-.42.4,1.29,1.29,0,0,0-.24.4,1.57,1.57,0,0,0-.09.47,6.11,6.11,0,0,0,0,.64,1,1,0,0,1-.22.62,1,1,0,0,1-.34.24,1.36,1.36,0,0,1-.53.09,1.43,1.43,0,0,1-.87-.24.94.94,0,0,1-.32-.81,5,5,0,0,1,.1-1.08,3.47,3.47,0,0,1,.3-.84,2.49,2.49,0,0,1,.51-.66,5.39,5.39,0,0,1,.71-.58,3.43,3.43,0,0,0,.5-.43,3.35,3.35,0,0,0,.43-.49,2.45,2.45,0,0,0,.3-.58,2.08,2.08,0,0,0,.11-.69,2.74,2.74,0,0,0-.07-.6,1.33,1.33,0,0,0-.25-.47,1.14,1.14,0,0,0-.49-.3,2.37,2.37,0,0,0-.77-.11,2,2,0,0,0-.61.08,1.86,1.86,0,0,0-.4.2,1.64,1.64,0,0,0-.27.24l-.19.21a1.62,1.62,0,0,1-.42.28A1.88,1.88,0,0,1,7.32,6a1.08,1.08,0,0,1-.44,0,.8.8,0,0,1-.37-.18,1,1,0,0,1-.41-.65.92.92,0,0,1,.19-.66,3,3,0,0,1,.49-.53,4.3,4.3,0,0,1,.74-.48,4.16,4.16,0,0,1,1-.33A5.22,5.22,0,0,1,9.71,3a5.07,5.07,0,0,1,1.75.27A3.68,3.68,0,0,1,12.67,4a2.9,2.9,0,0,1,.7,1A3.49,3.49,0,0,1,13.6,6.27ZM8,14.94a1.27,1.27,0,0,0,.42,1,1.52,1.52,0,0,0,1,.36,1.55,1.55,0,0,0,1-.36,1.28,1.28,0,0,0,.43-1,1.35,1.35,0,0,0-.43-1.06,1.55,1.55,0,0,0-1-.36,1.52,1.52,0,0,0-1,.36A1.34,1.34,0,0,0,8,14.94Z"/></g></g></svg>