<svg xmlns="http://www.w3.org/2000/svg" viewBox="0 0 19 19"><defs><style>.cls-1{fill:#fff;}</style></defs><g id="레이어_2" data-name="레이어 2"><g id="레이어_1-2" data-name="레이어 1"><path class="cls-1" d="M0,9.5A9.5,9.5,0,1,0,9.5,0,9.5,9.5,0,0,0,0,9.5Zm18,0A8.5,8.5,0,1,1,9.5,1,8.51,8.51,0,0,1,18,9.5Z"/><path class="cls-1" d="M8,4.5v6.38L6.32,9.2A1.5,1.5,0,1,0,4.2,11.32l4.24,4.24a1.63,1.63,0,0,0,.49.33H9a1.43,1.43,0,0,0,1.1,0h0a1.63,1.63,0,0,0,.49-.33l4.24-4.24A1.5,1.5,0,0,0,12.68,9.2L11,10.88V4.5a1.5,1.5,0,0,0-3,0Z"/></g></g></svg>