<svg xmlns="http://www.w3.org/2000/svg" viewBox="0 0 19 19"><defs><style>.cls-1{fill:#fff;}.cls-2{fill:none;}</style></defs><g id="레이어_2" data-name="레이어 2"><g id="레이어_1-2" data-name="레이어 1"><path class="cls-1" d="M12,8.66H7a1,1,0,0,0,0,2h5a1,1,0,0,0,0-2Z"/><path class="cls-1" d="M12,11.66H7a1,1,0,0,0,0,2h5a1,1,0,0,0,0-2Z"/><path class="cls-1" d="M12,14.66H7a1,1,0,0,0,0,2h5a1,1,0,0,0,0-2Z"/><path class="cls-1" d="M19,9.5A9.5,9.5,0,1,0,5,17.87V5.66a1,1,0,0,1,1-1h7a1,1,0,0,1,1,1V17.87A9.5,9.5,0,0,0,19,9.5Z"/><path class="cls-1" d="M12,5.66H7a1,1,0,0,0,0,2h5a1,1,0,0,0,0-2Z"/><circle class="cls-2" cx="9.5" cy="9.5" r="9.5"/></g></g></svg>