<svg xmlns="http://www.w3.org/2000/svg" viewBox="0 0 19 19"><defs><style>.cls-1{fill:none;}.cls-2{fill:#fff;}</style></defs><g id="레이어_2" data-name="레이어 2"><g id="레이어_1-2" data-name="레이어 1"><path class="cls-1" d="M9.5,1a8.5,8.5,0,0,0-4,16l.92-2.52h-1a1,1,0,0,1-1-.95V5.45a1,1,0,0,1,1-1h8.1a1,1,0,0,1,.95,1v8.1a1,1,0,0,1-.95.95h-1L13.47,17a8.5,8.5,0,0,0-4-16Z"/><path class="cls-2" d="M13.55,14.5a1,1,0,0,0,.95-.95V5.45a1,1,0,0,0-.95-1H5.45a1,1,0,0,0-1,1v8.1a1,1,0,0,0,1,.95h1L5.53,17c.3.15.6.28.92.41L7.51,14.5h4l1.06,2.93c.32-.13.62-.26.92-.41l-.92-2.52Zm-7.3-1A.75.75,0,1,1,7,12.75.76.76,0,0,1,6.25,13.5ZM6.46,11a1,1,0,0,1-1-1V6.46a1,1,0,0,1,1-1h6.08a1,1,0,0,1,1,1V10a1,1,0,0,1-1,1ZM12,12.75a.75.75,0,1,1,.75.75A.76.76,0,0,1,12,12.75Z"/><path class="cls-2" d="M19,9.5A9.55,9.55,0,1,0,6.11,18.36a9.3,9.3,0,0,0,6.78,0A9.39,9.39,0,0,0,19,9.5ZM13.47,17c-.3.15-.6.28-.92.41a8.45,8.45,0,0,1-6.1,0c-.32-.13-.62-.26-.92-.41a8.5,8.5,0,1,1,7.94,0Z"/></g></g></svg>