<svg xmlns="http://www.w3.org/2000/svg" viewBox="0 0 19 19"><defs><style>.cls-1{fill:#fff;}</style></defs><g id="레이어_2" data-name="레이어 2"><g id="레이어_1-2" data-name="레이어 1"><path class="cls-1" d="M9.5,0A9.5,9.5,0,1,0,19,9.5,9.5,9.5,0,0,0,9.5,0ZM16,12.44c0,.05,0,.1,0,.15s0,.1,0,.14l-.05.14a1.21,1.21,0,0,1-.05.14,34939927881401.06,34939927881401.06,0,0,0-.14.24l-.09.12-.1.1-.11.09a.6.6,0,0,1-.13.09s0,0,0,0l-.08,0a.84.84,0,0,1-.14.06l-.15.05-.13,0-.17,0H4.42l-.17,0-.13,0L4,13.78a.84.84,0,0,1-.14-.06l-.08,0s0,0,0,0a.38.38,0,0,1-.13-.09l-.11-.09-.09-.1-.1-.12a.41.41,0,0,1-.07-.11L3.14,13a.61.61,0,0,1-.05-.12c0-.05,0-.1,0-.15s0-.09,0-.13,0-.11,0-.17v0s0-.05,0-.07a.88.88,0,0,1,0-.17.35.35,0,0,1,0-.14.74.74,0,0,1,0-.14l.06-.14a.36.36,0,0,0,0-.09L8.2,3a.18.18,0,0,0,.05-.07l.09-.12.11-.11a.47.47,0,0,1,.1-.1l.14-.1.06,0,0,0L9,2.34l.12,0,.15,0,.13,0h.29l.15,0,.14,0,.13,0,.14.06.05,0a.18.18,0,0,1,.07,0l.13.09.11.1.09.1.1.14L10.8,3l5,8.67,0,.07a1,1,0,0,1,.07.15.93.93,0,0,1,0,.13.83.83,0,0,1,0,.15s0,.11,0,.16,0,0,0,.08Z"/></g></g></svg>