<svg xmlns="http://www.w3.org/2000/svg" viewBox="0 0 19 19"><defs><style>.cls-1{fill:#fff;}</style></defs><g id="레이어_2" data-name="레이어 2"><g id="레이어_1-2" data-name="레이어 1"><path class="cls-1" d="M18.92,8.35c0-.34-.1-.67-.17-1A9.31,9.31,0,0,0,17.5,4.4a9.08,9.08,0,0,0-.72-1A9.47,9.47,0,1,0,19,9.5,8.77,8.77,0,0,0,18.92,8.35Zm-1.2-1H10.56L11.64,4.4h4.65A8.7,8.7,0,0,1,17.72,7.35ZM1,9.5A8.49,8.49,0,0,1,15.41,3.4H11.27l-.1,0-.09,0L11,3.49l-.08.06,0,.07-.06.09v0L9.5,7.35H5.71l-.1,0-.09,0,0,0,0,0-.07.08a.22.22,0,0,0,0,.08.11.11,0,0,0,0,.08.44.44,0,0,0,0,.1.08.08,0,0,0,0,0,.43.43,0,0,0,0,.05.3.3,0,0,0,0,.1.25.25,0,0,0,0,.09s0,0,0,.05L9,13.35H1.93A8.42,8.42,0,0,1,1,9.5Zm16.07,3.85H10.22l-3.5-5H17.91A8.77,8.77,0,0,1,18,9.5,8.42,8.42,0,0,1,17.07,13.35Z"/><circle class="cls-1" cx="13.2" cy="5.85" r="0.75"/><circle class="cls-1" cx="15.7" cy="5.85" r="0.75"/></g></g></svg>