<?xml version="1.0" encoding="UTF-8"?>
<svg id="_레이어_2" data-name="레이어 2" xmlns="http://www.w3.org/2000/svg" xmlns:xlink="http://www.w3.org/1999/xlink" viewBox="0 0 200 200">
  <defs>
    <style>
      .cls-1 {
        fill: #005ae3;
      }

      .cls-2 {
        fill: #fff;
      }

      .cls-3 {
        fill: #c280ff;
      }

      .cls-4 {
        fill: #4ece52;
      }

      .cls-5 {
        fill: url(#_무제_그라디언트_2);
      }

      .cls-6 {
        fill: url(#_무제_그라디언트_3);
      }
    </style>
    <radialGradient id="_무제_그라디언트_3" data-name="무제 그라디언트 3" cx="62.96" cy="134.57" fx="79.33" fy="118.16" r="23.18" gradientUnits="userSpaceOnUse">
      <stop offset=".16" stop-color="#000"/>
      <stop offset=".86" stop-color="#000" stop-opacity="0"/>
    </radialGradient>
    <radialGradient id="_무제_그라디언트_2" data-name="무제 그라디언트 2" cx="92.91" cy="106.6" fx="119.87" fy="78.66" r="38.83" gradientUnits="userSpaceOnUse">
      <stop offset=".37" stop-color="#000"/>
      <stop offset=".88" stop-color="#000" stop-opacity="0"/>
    </radialGradient>
  </defs>
  <g id="shadow">
    <g>
      <rect class="cls-2" x="0" y="0" width="200" height="200" rx="100" ry="100"/>
      <circle class="cls-4" cx="60.07" cy="139.93" r="20"/>
      <circle class="cls-3" cx="83.05" cy="116.95" r="35"/>
      <circle class="cls-1" cx="115.93" cy="84.07" r="50"/>
      <path class="cls-6" d="M48.67,123.52c-.96,.67-1.89,1.42-2.74,2.27-7.81,7.81-7.81,20.47,0,28.28s20.47,7.81,28.28,0c.86-.86,1.6-1.78,2.27-2.74-6.66-1.27-13.03-4.47-18.18-9.63s-8.36-11.52-9.63-18.18Z"/>
      <path class="cls-5" d="M65.99,86.4c-2.75,1.54-5.34,3.47-7.68,5.81-8.51,8.51-11.72,20.32-9.63,31.31,1.27,6.66,4.47,13.03,9.63,18.18s11.52,8.36,18.18,9.63c11,2.09,22.8-1.12,31.31-9.63,2.34-2.34,4.27-4.93,5.81-7.68-12.01-.56-23.86-5.42-33.03-14.59s-14.03-21.02-14.59-33.03Z"/>
    </g>
  </g>
</svg>